<svg width="14" height="14" viewBox="0 0 14 14" fill="none" xmlns="http://www.w3.org/2000/svg">
<path d="M1.75 3.49984H12.8333L11.0833 9.33317H3.5L1.75 3.49984ZM1.75 3.49984L1.3125 2.0415M5.82867 6.4165H6.99533M6.99533 6.4165H8.162M6.99533 6.4165V5.24984M6.99533 6.4165V7.58317M6.41667 11.3748C6.41667 11.6069 6.32448 11.8295 6.16039 11.9936C5.99629 12.1576 5.77373 12.2498 5.54167 12.2498C5.3096 12.2498 5.08704 12.1576 4.92295 11.9936C4.75885 11.8295 4.66667 11.6069 4.66667 11.3748M9.91667 11.3748C9.91667 11.6069 9.82448 11.8295 9.66039 11.9936C9.49629 12.1576 9.27373 12.2498 9.04167 12.2498C8.8096 12.2498 8.58704 12.1576 8.42295 11.9936C8.25885 11.8295 8.16667 11.6069 8.16667 11.3748" stroke="white" stroke-width="1.5" stroke-linecap="round" stroke-linejoin="round"/>
</svg>
