<svg width="18" height="18" viewBox="0 0 18 18" fill="none" xmlns="http://www.w3.org/2000/svg">
<path d="M8.99989 12.5554C9.94288 12.5554 10.8473 12.1808 11.514 11.514C12.1808 10.8473 12.5554 9.94288 12.5554 8.99989C12.5554 8.0569 12.1808 7.15253 11.514 6.48573C10.8473 5.81894 9.94288 5.44434 8.99989 5.44434C8.0569 5.44434 7.15253 5.81894 6.48573 6.48573C5.81894 7.15253 5.44434 8.0569 5.44434 8.99989C5.44434 9.94288 5.81894 10.8473 6.48573 11.514C7.15253 12.1808 8.0569 12.5554 8.99989 12.5554Z" stroke="#AFC7F5" stroke-width="1.5" stroke-linecap="round" stroke-linejoin="round"/>
<path d="M1 12.5556V5.44444C1 4.2657 1.46825 3.13524 2.30175 2.30175C3.13524 1.46825 4.2657 1 5.44444 1H12.5556C13.7343 1 14.8648 1.46825 15.6983 2.30175C16.5317 3.13524 17 4.2657 17 5.44444V12.5556C17 13.7343 16.5317 14.8648 15.6983 15.6983C14.8648 16.5317 13.7343 17 12.5556 17H5.44444C4.2657 17 3.13524 16.5317 2.30175 15.6983C1.46825 14.8648 1 13.7343 1 12.5556Z" stroke="#AFC7F5" stroke-width="1.5"/>
<path d="M13.8887 4.12013L13.8976 4.11035" stroke="#AFC7F5" stroke-width="1.5" stroke-linecap="round" stroke-linejoin="round"/>
</svg>
