<svg width="18" height="18" viewBox="0 0 18 18" fill="none" xmlns="http://www.w3.org/2000/svg">
<path d="M14.6137 15.1154L9.91721 10.4189C9.54221 10.7384 9.11096 10.9857 8.62346 11.1607C8.13596 11.3357 7.64596 11.4232 7.15346 11.4232C5.95246 11.4232 4.93596 11.0074 4.10396 10.1759C3.27196 9.34441 2.85596 8.32816 2.85596 7.12716C2.85596 5.92616 3.27146 4.90941 4.10246 4.07691C4.93346 3.24441 5.94946 2.82766 7.15046 2.82666C8.35146 2.82566 9.36846 3.24166 10.2015 4.07466C11.0345 4.90766 11.451 5.92441 11.451 7.12491C11.451 7.64591 11.3587 8.15016 11.1742 8.63766C10.9897 9.12516 10.7472 9.54216 10.4467 9.88866L15.1432 14.5844L14.6137 15.1154ZM7.15421 10.6724C8.14921 10.6724 8.98921 10.3299 9.67421 9.64491C10.3592 8.95991 10.7017 8.11966 10.7017 7.12416C10.7017 6.12866 10.3592 5.28866 9.67421 4.60416C8.98921 3.91966 8.14921 3.57716 7.15421 3.57666C6.15921 3.57616 5.31896 3.91866 4.63346 4.60416C3.94796 5.28966 3.60546 6.12966 3.60596 7.12416C3.60646 8.11866 3.94896 8.95866 4.63346 9.64416C5.31796 10.3297 6.15796 10.6722 7.15346 10.6717" fill="white"/>
</svg>
