<svg width="200" height="200" viewBox="0 0 200 200" fill="none" xmlns="http://www.w3.org/2000/svg">
<g clip-path="url(#clip0_5_12)">
<path d="M149.692 121.667V77.7H159.875V112.733H177.708V121.65H149.692V121.667ZM68.1583 94.2667L92.9917 75.1667L100 80.8917L76.4417 98.725L81.5333 103.183L105.092 84.7167L112.1 90.45C104.285 96.6531 96.4317 102.809 88.5417 108.917L93.625 113.383L117.208 94.2583L117.2 77.7083H127.392V112.742H145.858V121.658H117.842V105.1L93 124.2L68.1583 105.1C66.9583 111.175 62.7167 116.433 57.225 119.217C54.8403 120.431 52.2582 121.21 49.6 121.517C48.075 121.7 46.5417 121.658 45.0083 121.658H29.3V77.7083H47.4167C52.1555 77.7538 56.742 79.3883 60.4417 82.35C64.225 85.35 66.925 89.6167 68.1667 94.2667M38.8667 86.625V113.375L46.8083 113.367C48.4775 113.311 50.1145 112.892 51.6054 112.139C53.0963 111.386 54.4054 110.318 55.4417 109.008C57.1912 106.813 58.2657 104.157 58.535 101.362C58.8042 98.5681 58.2565 95.7557 56.9583 93.2667C56.1364 91.6841 54.9854 90.2957 53.5826 89.1947C52.1797 88.0937 50.5576 87.3056 48.825 86.8833C47.4417 86.55 46.0083 86.6333 44.6 86.6167L38.8667 86.625ZM98.5 0H101.308C117.015 0.205099 132.45 4.12592 146.35 11.4417C159.915 18.5803 171.674 28.7177 180.733 41.0833C192.971 57.7527 199.705 77.8231 200 98.5V101.5C199.689 126.399 190.069 150.28 173.033 168.442C163.852 178.246 152.784 186.095 140.495 191.518C128.206 196.941 114.948 199.826 101.517 200H98.5083C86.6879 199.82 74.993 197.546 63.9667 193.283C50.5299 188.065 38.3801 180.003 28.35 169.65C17.6094 158.605 9.55185 145.238 4.8 130.583C1.77295 121.182 0.155388 111.384 0 101.508L0 98.5C0.31518 79.5103 6.07684 61.0105 16.6 45.2C26.4185 30.3786 39.9519 18.391 55.85 10.4333C69.1085 3.81238 83.6823 0.247225 98.5 0ZM97.225 10.25C77.6792 10.8051 58.8554 17.758 43.6417 30.0417C31.2037 40.0648 21.6575 53.2178 15.9833 68.15C7.74701 90.0645 8.32348 114.318 17.5917 135.817C23.9864 150.509 34.1877 163.227 47.1417 172.658C58.9119 181.241 72.6055 186.808 87.025 188.875C99.1583 190.617 111.65 189.908 123.492 186.708C139.7 182.33 154.353 173.489 165.783 161.192C177.222 148.913 184.978 133.667 188.167 117.192C190.659 104.266 190.312 90.9532 187.15 78.175C183.471 63.4436 176.115 49.8864 165.77 38.772C155.426 27.6576 142.43 19.3495 128 14.625C118.073 11.3928 107.659 9.91236 97.225 10.25Z" fill="#081142"/>
</g>
<defs>
<clipPath id="clip0_5_12">
<rect width="200" height="200" fill="white"/>
</clipPath>
</defs>
</svg>
