<svg width="90" height="17" viewBox="0 0 90 17" fill="none" xmlns="http://www.w3.org/2000/svg">
<path d="M9 0L11.0206 5.87336L17.5595 5.87336L12.2694 9.50329L14.2901 15.3766L9 11.7467L3.70993 15.3766L5.73056 9.50329L0.440492 5.87336L6.97937 5.87336L9 0Z" fill="#B5AF28"/>
<path d="M27 0L29.0206 5.87336L35.5595 5.87336L30.2694 9.50329L32.2901 15.3766L27 11.7467L21.7099 15.3766L23.7306 9.50329L18.4405 5.87336L24.9794 5.87336L27 0Z" fill="#B5AF28"/>
<path d="M45 0L47.0206 5.87336L53.5595 5.87336L48.2694 9.50329L50.2901 15.3766L45 11.7467L39.7099 15.3766L41.7306 9.50329L36.4405 5.87336L42.9794 5.87336L45 0Z" fill="#B5AF28"/>
<path d="M63 0L65.0206 5.87336L71.5595 5.87336L66.2694 9.50329L68.2901 15.3766L63 11.7467L57.7099 15.3766L59.7306 9.50329L54.4405 5.87336L60.9794 5.87336L63 0Z" fill="#B5AF28"/>
<path d="M81 0L83.0206 5.87336L89.5595 5.87336L84.2694 9.50329L86.2901 15.3766L81 11.7467L75.7099 15.3766L77.7306 9.50329L72.4405 5.87336L78.9794 5.87336L81 0Z" fill="#D9D9D9"/>
</svg>
